<mxfile host="app.diagrams.net" modified="2023-03-27T09:43:13.435Z" agent="Mozilla/5.0 (Macintosh; Intel Mac OS X 10_15_7) AppleWebKit/537.36 (KHTML, like Gecko) Chrome/111.0.0.0 Safari/537.36" etag="3Pr-i6kCav8M_asQGUGe" version="21.1.0" type="github">
  <diagram name="第 1 页" id="D7cHuHpqmKT0e729MPXu">
    <mxGraphModel dx="2475" dy="1669" grid="1" gridSize="10" guides="1" tooltips="1" connect="1" arrows="1" fold="1" page="1" pageScale="1" pageWidth="1169" pageHeight="827" math="0" shadow="0">
      <root>
        <mxCell id="0" />
        <mxCell id="1" parent="0" />
        <mxCell id="6B-Ez8rcvdGtk-LPzqOY-38" value="" style="rounded=0;whiteSpace=wrap;html=1;" vertex="1" parent="1">
          <mxGeometry x="-50" y="-20" width="1410" height="880" as="geometry" />
        </mxCell>
        <mxCell id="6B-Ez8rcvdGtk-LPzqOY-6" value="&lt;font style=&quot;font-size: 28px;&quot;&gt;应用层&lt;/font&gt;" style="rounded=1;whiteSpace=wrap;html=1;fillColor=#dae8fc;strokeColor=#6c8ebf;" vertex="1" parent="1">
          <mxGeometry y="140" width="120" height="60" as="geometry" />
        </mxCell>
        <mxCell id="6B-Ez8rcvdGtk-LPzqOY-7" value="&lt;font style=&quot;font-size: 28px;&quot;&gt;工具层&lt;/font&gt;" style="rounded=1;whiteSpace=wrap;html=1;fillColor=#dae8fc;strokeColor=#6c8ebf;" vertex="1" parent="1">
          <mxGeometry y="344" width="120" height="60" as="geometry" />
        </mxCell>
        <mxCell id="6B-Ez8rcvdGtk-LPzqOY-8" value="&lt;font style=&quot;font-size: 28px;&quot;&gt;分析层&lt;/font&gt;" style="rounded=1;whiteSpace=wrap;html=1;fillColor=#dae8fc;strokeColor=#6c8ebf;" vertex="1" parent="1">
          <mxGeometry y="580" width="120" height="60" as="geometry" />
        </mxCell>
        <mxCell id="6B-Ez8rcvdGtk-LPzqOY-9" value="&lt;font style=&quot;font-size: 28px;&quot;&gt;数据层&lt;/font&gt;" style="rounded=1;whiteSpace=wrap;html=1;fillColor=#dae8fc;strokeColor=#6c8ebf;" vertex="1" parent="1">
          <mxGeometry y="740" width="120" height="60" as="geometry" />
        </mxCell>
        <mxCell id="6B-Ez8rcvdGtk-LPzqOY-10" value="&lt;font style=&quot;font-size: 28px;&quot;&gt;可视化图表&lt;/font&gt;" style="rounded=0;whiteSpace=wrap;html=1;fillColor=#d5e8d4;strokeColor=#82b366;" vertex="1" parent="1">
          <mxGeometry x="690" y="140" width="200" height="60" as="geometry" />
        </mxCell>
        <mxCell id="6B-Ez8rcvdGtk-LPzqOY-11" value="&lt;font style=&quot;font-size: 28px;&quot;&gt;场景化编排&lt;/font&gt;" style="rounded=0;whiteSpace=wrap;html=1;fillColor=#d5e8d4;strokeColor=#82b366;" vertex="1" parent="1">
          <mxGeometry x="910" y="140" width="200" height="60" as="geometry" />
        </mxCell>
        <mxCell id="6B-Ez8rcvdGtk-LPzqOY-15" value="&lt;font style=&quot;font-size: 28px;&quot;&gt;实例监控指标&lt;/font&gt;" style="rounded=0;whiteSpace=wrap;html=1;fillColor=#d5e8d4;strokeColor=#82b366;" vertex="1" parent="1">
          <mxGeometry x="200" y="740" width="200" height="60" as="geometry" />
        </mxCell>
        <mxCell id="6B-Ez8rcvdGtk-LPzqOY-16" value="&lt;font style=&quot;font-size: 28px;&quot;&gt;日志&lt;/font&gt;" style="rounded=0;whiteSpace=wrap;html=1;fillColor=#d5e8d4;strokeColor=#82b366;" vertex="1" parent="1">
          <mxGeometry x="690" y="740" width="90" height="60" as="geometry" />
        </mxCell>
        <mxCell id="6B-Ez8rcvdGtk-LPzqOY-17" value="&lt;font style=&quot;font-size: 28px;&quot;&gt;事件&lt;/font&gt;" style="rounded=0;whiteSpace=wrap;html=1;fillColor=#d5e8d4;strokeColor=#82b366;" vertex="1" parent="1">
          <mxGeometry x="800" y="740" width="90" height="60" as="geometry" />
        </mxCell>
        <mxCell id="6B-Ez8rcvdGtk-LPzqOY-18" value="&lt;font style=&quot;font-size: 28px;&quot;&gt;相关监控指标&lt;/font&gt;" style="rounded=0;whiteSpace=wrap;html=1;fillColor=#d5e8d4;strokeColor=#82b366;" vertex="1" parent="1">
          <mxGeometry x="910" y="740" width="220" height="60" as="geometry" />
        </mxCell>
        <mxCell id="6B-Ez8rcvdGtk-LPzqOY-21" value="&lt;span style=&quot;font-size: 28px;&quot;&gt;人工诊断分析&lt;/span&gt;" style="rounded=0;whiteSpace=wrap;html=1;fillColor=#d5e8d4;strokeColor=#82b366;" vertex="1" parent="1">
          <mxGeometry x="200" y="580" width="200" height="60" as="geometry" />
        </mxCell>
        <mxCell id="6B-Ez8rcvdGtk-LPzqOY-22" value="&lt;span style=&quot;font-size: 28px;&quot;&gt;基于经验规则的诊断优化&lt;/span&gt;" style="rounded=0;whiteSpace=wrap;html=1;fillColor=#d5e8d4;strokeColor=#82b366;" vertex="1" parent="1">
          <mxGeometry x="690" y="620" width="440" height="60" as="geometry" />
        </mxCell>
        <mxCell id="6B-Ez8rcvdGtk-LPzqOY-23" value="&lt;span style=&quot;font-size: 28px;&quot;&gt;基于数据和机器学习的智能诊断&lt;/span&gt;" style="rounded=0;whiteSpace=wrap;html=1;fillColor=#fff2cc;strokeColor=#d6b656;" vertex="1" parent="1">
          <mxGeometry x="690" y="540" width="440" height="60" as="geometry" />
        </mxCell>
        <mxCell id="6B-Ez8rcvdGtk-LPzqOY-24" value="&lt;span style=&quot;font-size: 28px;&quot;&gt;实例性能报告&lt;/span&gt;" style="rounded=0;whiteSpace=wrap;html=1;fillColor=#d5e8d4;strokeColor=#82b366;" vertex="1" parent="1">
          <mxGeometry x="200" y="344" width="200" height="60" as="geometry" />
        </mxCell>
        <mxCell id="6B-Ez8rcvdGtk-LPzqOY-25" value="&lt;span style=&quot;font-size: 28px;&quot;&gt;异常检测&lt;/span&gt;" style="rounded=0;whiteSpace=wrap;html=1;fillColor=#d5e8d4;strokeColor=#82b366;" vertex="1" parent="1">
          <mxGeometry x="550" y="420" width="160" height="60" as="geometry" />
        </mxCell>
        <mxCell id="6B-Ez8rcvdGtk-LPzqOY-26" value="&lt;span style=&quot;font-size: 28px;&quot;&gt;根因分析&lt;/span&gt;" style="rounded=0;whiteSpace=wrap;html=1;fillColor=#d5e8d4;strokeColor=#82b366;" vertex="1" parent="1">
          <mxGeometry x="730" y="420" width="160" height="60" as="geometry" />
        </mxCell>
        <mxCell id="6B-Ez8rcvdGtk-LPzqOY-27" value="&lt;span style=&quot;font-size: 28px;&quot;&gt;修复建议&lt;/span&gt;" style="rounded=0;whiteSpace=wrap;html=1;fillColor=#d5e8d4;strokeColor=#82b366;" vertex="1" parent="1">
          <mxGeometry x="730" y="340" width="160" height="60" as="geometry" />
        </mxCell>
        <mxCell id="6B-Ez8rcvdGtk-LPzqOY-28" value="&lt;span style=&quot;font-size: 28px;&quot;&gt;故障自愈&lt;/span&gt;" style="rounded=0;whiteSpace=wrap;html=1;fillColor=#fff2cc;strokeColor=#d6b656;" vertex="1" parent="1">
          <mxGeometry x="730" y="260" width="160" height="60" as="geometry" />
        </mxCell>
        <mxCell id="6B-Ez8rcvdGtk-LPzqOY-29" value="&lt;span style=&quot;font-size: 28px;&quot;&gt;异常预测&lt;/span&gt;" style="rounded=0;whiteSpace=wrap;html=1;fillColor=#d5e8d4;strokeColor=#82b366;" vertex="1" parent="1">
          <mxGeometry x="550" y="340" width="160" height="60" as="geometry" />
        </mxCell>
        <mxCell id="6B-Ez8rcvdGtk-LPzqOY-30" value="&lt;span style=&quot;font-size: 28px;&quot;&gt;趋势分析&lt;/span&gt;" style="rounded=0;whiteSpace=wrap;html=1;fillColor=#d5e8d4;strokeColor=#82b366;" vertex="1" parent="1">
          <mxGeometry x="910" y="420" width="160" height="60" as="geometry" />
        </mxCell>
        <mxCell id="6B-Ez8rcvdGtk-LPzqOY-31" value="&lt;span style=&quot;font-size: 28px;&quot;&gt;日常巡检&lt;/span&gt;" style="rounded=0;whiteSpace=wrap;html=1;fillColor=#d5e8d4;strokeColor=#82b366;" vertex="1" parent="1">
          <mxGeometry x="550" y="260" width="160" height="60" as="geometry" />
        </mxCell>
        <mxCell id="6B-Ez8rcvdGtk-LPzqOY-33" value="&lt;span style=&quot;font-size: 28px;&quot;&gt;容量预估&lt;/span&gt;" style="rounded=0;whiteSpace=wrap;html=1;fillColor=#d5e8d4;strokeColor=#82b366;" vertex="1" parent="1">
          <mxGeometry x="910" y="340" width="160" height="60" as="geometry" />
        </mxCell>
        <mxCell id="6B-Ez8rcvdGtk-LPzqOY-34" value="&lt;span style=&quot;font-size: 28px;&quot;&gt;弹性伸缩&lt;/span&gt;" style="rounded=0;whiteSpace=wrap;html=1;fillColor=#fff2cc;strokeColor=#d6b656;" vertex="1" parent="1">
          <mxGeometry x="910" y="260" width="160" height="60" as="geometry" />
        </mxCell>
        <mxCell id="6B-Ez8rcvdGtk-LPzqOY-35" value="&lt;span style=&quot;font-size: 28px;&quot;&gt;运维套件&lt;/span&gt;" style="rounded=0;whiteSpace=wrap;html=1;fillColor=#d5e8d4;strokeColor=#82b366;" vertex="1" parent="1">
          <mxGeometry x="1090" y="420" width="160" height="60" as="geometry" />
        </mxCell>
        <mxCell id="6B-Ez8rcvdGtk-LPzqOY-36" value="&lt;span style=&quot;font-size: 28px;&quot;&gt;性能优化&lt;/span&gt;" style="rounded=0;whiteSpace=wrap;html=1;fillColor=#d5e8d4;strokeColor=#82b366;" vertex="1" parent="1">
          <mxGeometry x="1090" y="340" width="160" height="60" as="geometry" />
        </mxCell>
        <mxCell id="6B-Ez8rcvdGtk-LPzqOY-37" value="&lt;span style=&quot;font-size: 28px;&quot;&gt;智能调优&lt;/span&gt;" style="rounded=0;whiteSpace=wrap;html=1;fillColor=#fff2cc;strokeColor=#d6b656;" vertex="1" parent="1">
          <mxGeometry x="1090" y="260" width="160" height="60" as="geometry" />
        </mxCell>
        <mxCell id="6B-Ez8rcvdGtk-LPzqOY-40" value="&lt;b style=&quot;border-color: var(--border-color);&quot;&gt;&lt;font style=&quot;border-color: var(--border-color); font-size: 44px;&quot;&gt;诊断平台 2.0&lt;/font&gt;&lt;/b&gt;" style="shape=step;perimeter=stepPerimeter;whiteSpace=wrap;html=1;fixedSize=1;fillColor=#f5f5f5;fontColor=#333333;strokeColor=#666666;" vertex="1" parent="1">
          <mxGeometry x="680" y="15" width="450" height="80" as="geometry" />
        </mxCell>
        <mxCell id="6B-Ez8rcvdGtk-LPzqOY-39" value="&lt;b style=&quot;border-color: var(--border-color);&quot;&gt;&lt;font style=&quot;border-color: var(--border-color); font-size: 44px;&quot;&gt;诊断平台&lt;/font&gt;&lt;/b&gt;" style="shape=step;perimeter=stepPerimeter;whiteSpace=wrap;html=1;fixedSize=1;fillColor=#f5f5f5;fontColor=#333333;strokeColor=#666666;" vertex="1" parent="1">
          <mxGeometry x="175" y="15" width="250" height="80" as="geometry" />
        </mxCell>
      </root>
    </mxGraphModel>
  </diagram>
</mxfile>
